<mxfile host="Electron" modified="2023-07-17T16:31:04.119Z" agent="Mozilla/5.0 (Windows NT 10.0; Win64; x64) AppleWebKit/537.36 (KHTML, like Gecko) draw.io/21.6.1 Chrome/112.0.5615.204 Electron/24.6.1 Safari/537.36" etag="N0zfztY_Bs6CKf5ZBzKr" version="21.6.1" type="device">
  <diagram name="Страница 1" id="JfGBhKojXyEkSTST9Cfl">
    <mxGraphModel dx="954" dy="638" grid="1" gridSize="10" guides="1" tooltips="1" connect="1" arrows="1" fold="1" page="1" pageScale="1" pageWidth="827" pageHeight="1169" math="0" shadow="0">
      <root>
        <mxCell id="0" />
        <mxCell id="1" parent="0" />
        <mxCell id="_NWT2eWuHVBX2bnr4IAa-3" value="" style="edgeStyle=orthogonalEdgeStyle;rounded=0;orthogonalLoop=1;jettySize=auto;html=1;" edge="1" parent="1" source="_NWT2eWuHVBX2bnr4IAa-1" target="_NWT2eWuHVBX2bnr4IAa-2">
          <mxGeometry relative="1" as="geometry" />
        </mxCell>
        <mxCell id="_NWT2eWuHVBX2bnr4IAa-1" value="Start" style="ellipse;whiteSpace=wrap;html=1;" vertex="1" parent="1">
          <mxGeometry x="330" y="40" width="120" height="80" as="geometry" />
        </mxCell>
        <mxCell id="_NWT2eWuHVBX2bnr4IAa-5" value="" style="edgeStyle=orthogonalEdgeStyle;rounded=0;orthogonalLoop=1;jettySize=auto;html=1;" edge="1" parent="1" source="_NWT2eWuHVBX2bnr4IAa-2" target="_NWT2eWuHVBX2bnr4IAa-4">
          <mxGeometry relative="1" as="geometry" />
        </mxCell>
        <mxCell id="_NWT2eWuHVBX2bnr4IAa-2" value="fist Num" style="whiteSpace=wrap;html=1;" vertex="1" parent="1">
          <mxGeometry x="330" y="160" width="120" height="30" as="geometry" />
        </mxCell>
        <mxCell id="_NWT2eWuHVBX2bnr4IAa-7" value="" style="edgeStyle=orthogonalEdgeStyle;rounded=0;orthogonalLoop=1;jettySize=auto;html=1;entryX=0.5;entryY=0;entryDx=0;entryDy=0;" edge="1" parent="1" source="_NWT2eWuHVBX2bnr4IAa-4">
          <mxGeometry relative="1" as="geometry">
            <mxPoint x="390" y="410" as="targetPoint" />
          </mxGeometry>
        </mxCell>
        <mxCell id="_NWT2eWuHVBX2bnr4IAa-4" value="input fistNum" style="shape=parallelogram;perimeter=parallelogramPerimeter;whiteSpace=wrap;html=1;fixedSize=1;" vertex="1" parent="1">
          <mxGeometry x="330" y="255" width="120" height="60" as="geometry" />
        </mxCell>
        <mxCell id="_NWT2eWuHVBX2bnr4IAa-9" value="" style="edgeStyle=orthogonalEdgeStyle;rounded=0;orthogonalLoop=1;jettySize=auto;html=1;" edge="1" parent="1" target="_NWT2eWuHVBX2bnr4IAa-8">
          <mxGeometry relative="1" as="geometry">
            <mxPoint x="390" y="455" as="sourcePoint" />
          </mxGeometry>
        </mxCell>
        <mxCell id="_NWT2eWuHVBX2bnr4IAa-11" value="" style="edgeStyle=orthogonalEdgeStyle;rounded=0;orthogonalLoop=1;jettySize=auto;html=1;" edge="1" parent="1" source="_NWT2eWuHVBX2bnr4IAa-8" target="_NWT2eWuHVBX2bnr4IAa-10">
          <mxGeometry relative="1" as="geometry" />
        </mxCell>
        <mxCell id="_NWT2eWuHVBX2bnr4IAa-8" value="InputLastNum" style="shape=parallelogram;perimeter=parallelogramPerimeter;whiteSpace=wrap;html=1;fixedSize=1;" vertex="1" parent="1">
          <mxGeometry x="330" y="535" width="120" height="60" as="geometry" />
        </mxCell>
        <mxCell id="_NWT2eWuHVBX2bnr4IAa-14" value="" style="edgeStyle=orthogonalEdgeStyle;rounded=0;orthogonalLoop=1;jettySize=auto;html=1;" edge="1" parent="1" source="_NWT2eWuHVBX2bnr4IAa-10" target="_NWT2eWuHVBX2bnr4IAa-13">
          <mxGeometry relative="1" as="geometry" />
        </mxCell>
        <mxCell id="_NWT2eWuHVBX2bnr4IAa-18" value="" style="edgeStyle=orthogonalEdgeStyle;rounded=0;orthogonalLoop=1;jettySize=auto;html=1;entryX=0.5;entryY=0;entryDx=0;entryDy=0;" edge="1" parent="1" source="_NWT2eWuHVBX2bnr4IAa-10" target="_NWT2eWuHVBX2bnr4IAa-21">
          <mxGeometry relative="1" as="geometry">
            <mxPoint x="230" y="705" as="targetPoint" />
          </mxGeometry>
        </mxCell>
        <mxCell id="_NWT2eWuHVBX2bnr4IAa-10" value="FistNum &amp;gt; LastNum" style="rhombus;whiteSpace=wrap;html=1;" vertex="1" parent="1">
          <mxGeometry x="350" y="665" width="80" height="80" as="geometry" />
        </mxCell>
        <mxCell id="_NWT2eWuHVBX2bnr4IAa-30" style="edgeStyle=orthogonalEdgeStyle;rounded=0;orthogonalLoop=1;jettySize=auto;html=1;entryX=1;entryY=0.5;entryDx=0;entryDy=0;" edge="1" parent="1" source="_NWT2eWuHVBX2bnr4IAa-13" target="_NWT2eWuHVBX2bnr4IAa-29">
          <mxGeometry relative="1" as="geometry">
            <mxPoint x="585" y="960" as="targetPoint" />
            <Array as="points">
              <mxPoint x="590" y="970" />
            </Array>
          </mxGeometry>
        </mxCell>
        <mxCell id="_NWT2eWuHVBX2bnr4IAa-13" value="print Max FistNum and Min LastNum" style="shape=document;whiteSpace=wrap;html=1;boundedLbl=1;" vertex="1" parent="1">
          <mxGeometry x="540" y="665" width="110" height="80" as="geometry" />
        </mxCell>
        <mxCell id="_NWT2eWuHVBX2bnr4IAa-16" value="true" style="text;html=1;strokeColor=none;fillColor=none;align=center;verticalAlign=middle;whiteSpace=wrap;rounded=0;" vertex="1" parent="1">
          <mxGeometry x="440" y="665" width="60" height="30" as="geometry" />
        </mxCell>
        <mxCell id="_NWT2eWuHVBX2bnr4IAa-19" value="false" style="text;html=1;strokeColor=none;fillColor=none;align=center;verticalAlign=middle;whiteSpace=wrap;rounded=0;" vertex="1" parent="1">
          <mxGeometry x="270" y="665" width="60" height="30" as="geometry" />
        </mxCell>
        <mxCell id="_NWT2eWuHVBX2bnr4IAa-22" style="edgeStyle=orthogonalEdgeStyle;rounded=0;orthogonalLoop=1;jettySize=auto;html=1;exitX=1;exitY=0.5;exitDx=0;exitDy=0;" edge="1" parent="1" source="_NWT2eWuHVBX2bnr4IAa-21">
          <mxGeometry relative="1" as="geometry">
            <mxPoint x="250" y="780" as="targetPoint" />
          </mxGeometry>
        </mxCell>
        <mxCell id="_NWT2eWuHVBX2bnr4IAa-23" style="edgeStyle=orthogonalEdgeStyle;rounded=0;orthogonalLoop=1;jettySize=auto;html=1;exitX=1;exitY=0.5;exitDx=0;exitDy=0;entryX=0.5;entryY=0;entryDx=0;entryDy=0;" edge="1" parent="1" source="_NWT2eWuHVBX2bnr4IAa-21" target="_NWT2eWuHVBX2bnr4IAa-24">
          <mxGeometry relative="1" as="geometry">
            <mxPoint x="320" y="780" as="targetPoint" />
          </mxGeometry>
        </mxCell>
        <mxCell id="_NWT2eWuHVBX2bnr4IAa-27" style="edgeStyle=orthogonalEdgeStyle;rounded=0;orthogonalLoop=1;jettySize=auto;html=1;exitX=0;exitY=0.5;exitDx=0;exitDy=0;entryX=0.5;entryY=0;entryDx=0;entryDy=0;" edge="1" parent="1" source="_NWT2eWuHVBX2bnr4IAa-21" target="_NWT2eWuHVBX2bnr4IAa-26">
          <mxGeometry relative="1" as="geometry" />
        </mxCell>
        <mxCell id="_NWT2eWuHVBX2bnr4IAa-21" value="FirstNum = LastNum" style="rhombus;whiteSpace=wrap;html=1;" vertex="1" parent="1">
          <mxGeometry x="150" y="740" width="80" height="80" as="geometry" />
        </mxCell>
        <mxCell id="_NWT2eWuHVBX2bnr4IAa-31" style="edgeStyle=orthogonalEdgeStyle;rounded=0;orthogonalLoop=1;jettySize=auto;html=1;entryX=0;entryY=0.5;entryDx=0;entryDy=0;" edge="1" parent="1" source="_NWT2eWuHVBX2bnr4IAa-24" target="_NWT2eWuHVBX2bnr4IAa-29">
          <mxGeometry relative="1" as="geometry" />
        </mxCell>
        <mxCell id="_NWT2eWuHVBX2bnr4IAa-24" value="Print equal numbers" style="shape=document;whiteSpace=wrap;html=1;boundedLbl=1;" vertex="1" parent="1">
          <mxGeometry x="270" y="800" width="120" height="80" as="geometry" />
        </mxCell>
        <mxCell id="_NWT2eWuHVBX2bnr4IAa-25" value="true" style="text;html=1;strokeColor=none;fillColor=none;align=center;verticalAlign=middle;whiteSpace=wrap;rounded=0;" vertex="1" parent="1">
          <mxGeometry x="270" y="750" width="60" height="30" as="geometry" />
        </mxCell>
        <mxCell id="_NWT2eWuHVBX2bnr4IAa-32" style="edgeStyle=orthogonalEdgeStyle;rounded=0;orthogonalLoop=1;jettySize=auto;html=1;entryX=0;entryY=0.875;entryDx=0;entryDy=0;entryPerimeter=0;" edge="1" parent="1" source="_NWT2eWuHVBX2bnr4IAa-26" target="_NWT2eWuHVBX2bnr4IAa-29">
          <mxGeometry relative="1" as="geometry" />
        </mxCell>
        <mxCell id="_NWT2eWuHVBX2bnr4IAa-26" value="print RirstNum &amp;lt; LastNum" style="shape=document;whiteSpace=wrap;html=1;boundedLbl=1;" vertex="1" parent="1">
          <mxGeometry x="40" y="840" width="120" height="80" as="geometry" />
        </mxCell>
        <mxCell id="_NWT2eWuHVBX2bnr4IAa-28" value="false" style="text;html=1;strokeColor=none;fillColor=none;align=center;verticalAlign=middle;whiteSpace=wrap;rounded=0;" vertex="1" parent="1">
          <mxGeometry x="90" y="750" width="60" height="30" as="geometry" />
        </mxCell>
        <mxCell id="_NWT2eWuHVBX2bnr4IAa-29" value="End" style="ellipse;whiteSpace=wrap;html=1;aspect=fixed;" vertex="1" parent="1">
          <mxGeometry x="350" y="930" width="80" height="80" as="geometry" />
        </mxCell>
        <mxCell id="_NWT2eWuHVBX2bnr4IAa-33" style="edgeStyle=orthogonalEdgeStyle;rounded=0;orthogonalLoop=1;jettySize=auto;html=1;exitX=0.5;exitY=1;exitDx=0;exitDy=0;" edge="1" parent="1">
          <mxGeometry relative="1" as="geometry">
            <mxPoint x="390" y="455" as="sourcePoint" />
            <mxPoint x="390" y="455" as="targetPoint" />
          </mxGeometry>
        </mxCell>
        <mxCell id="_NWT2eWuHVBX2bnr4IAa-42" value="" style="edgeStyle=orthogonalEdgeStyle;rounded=0;orthogonalLoop=1;jettySize=auto;html=1;" edge="1" parent="1" source="_NWT2eWuHVBX2bnr4IAa-41" target="_NWT2eWuHVBX2bnr4IAa-8">
          <mxGeometry relative="1" as="geometry" />
        </mxCell>
        <mxCell id="_NWT2eWuHVBX2bnr4IAa-41" value="LastNum" style="whiteSpace=wrap;html=1;" vertex="1" parent="1">
          <mxGeometry x="330" y="410" width="120" height="30" as="geometry" />
        </mxCell>
      </root>
    </mxGraphModel>
  </diagram>
</mxfile>
